<?xml version="1.0" encoding="utf-8"?>
<!-- Generator: Adobe Illustrator 26.2.1, SVG Export Plug-In . SVG Version: 6.00 Build 0)  -->
<svg version="1.1" id="Layer_1" xmlns="http://www.w3.org/2000/svg" xmlns:xlink="http://www.w3.org/1999/xlink" x="0px" y="0px"
	 viewBox="0 0 1058.16 1018.32" style="enable-background:new 0 0 1058.16 1018.32;" xml:space="preserve">
<style type="text/css">
	.st0{fill-rule:evenodd;clip-rule:evenodd;fill:#E9F1E4;}
	.st1{fill-rule:evenodd;clip-rule:evenodd;fill:#C5D5B9;}
</style>
<path id="Rachel" class="st0" d="M701.85,840.1l-27.03-45.56l14.77-8.76l19.88,33.51l23.13-13.72l7.15,12.05L701.85,840.1z
	 M648.53,847.18l27.89-10.29l4.85,13.15l-42.93,15.84L620,816.18l42.93-15.84l4.85,13.15l-27.89,10.29l2.38,6.46l27.89-10.29
	l3.87,10.49l-27.89,10.29L648.53,847.18z M596.96,853.41l-19.83,3.2l3.42,21.19l-15.83,2.56l-8.45-52.3l15.83-2.56l3.2,19.83
	l19.83-3.2l-3.2-19.83l15.83-2.56l8.45,52.3l-15.83,2.56L596.96,853.41z M511.79,841.67l-0.8,24.94l30.85,0.99l-0.45,14.01
	l-35.54-1.14c-2.59-0.08-5.01-1.19-7.27-3.31c-1.15-1.06-2.06-2.71-2.72-4.95c-0.66-2.24-0.95-4.6-0.87-7.08l0.74-23.15
	c0.05-1.51,0.29-3.03,0.71-4.56c0.43-1.53,1.15-2.97,2.17-4.35c1.52-2,3.24-3.43,5.16-4.29c1.92-0.86,4.2-1.24,6.84-1.16l32.46,1.04
	l-0.45,14.01L511.79,841.67z M471.4,877.29l-15.64-3.55l4.53-19.99l-17.3-3.92l-4.53,19.99l-15.64-3.55l8.3-36.6
	c0.45-1.72,0.83-3.04,1.15-3.97c1.09-2.85,2.42-4.88,4-6.1c1.58-1.22,3.33-1.98,5.25-2.29c1.92-0.31,3.81-0.26,5.65,0.16
	c0.74,0.17,1.26,0.29,1.58,0.36l22.36,5.07c1.9,0.43,3.47,1.11,4.73,2.03c1.26,0.92,2.35,2.26,3.28,4.02
	c1.54,2.73,1.98,5.54,1.33,8.44L471.4,877.29z M447.04,831.98l-1.56,6.87l17.3,3.92l1.56-6.87L447.04,831.98z M415.26,827.49
	c-0.84,1.34-2.03,2.49-3.59,3.45c-0.8,0.47-2.07,0.85-3.8,1.14c-0.51,0.07-1.29,0.16-2.34,0.28c0.48,0.63,0.83,1.11,1.04,1.44
	c0.65,1.06,1.11,2.01,1.39,2.84c0.87,2.82,0.83,5.28-0.12,7.4l-6.76,15.08l-14.64-6.56l8.55-19.07l-17.67-7.92l-8.55,19.07
	l-14.64-6.56l21.67-48.34l37.4,16.76c1.18,0.53,2.14,1.11,2.86,1.73c0.73,0.62,1.41,1.46,2.06,2.52c1.77,2.92,1.93,5.99,0.5,9.19
	L415.26,827.49z M384.71,809.1l-2.88,6.43l17.67,7.92l2.88-6.43L384.71,809.1z"/>
<path id="_x23_e9f1e4" class="st0" d="M989.13,518.64c-0.42,16.88-1.76,33.54-3.96,49.92H973.8c2.77-20.16,4.21-40.75,4.21-61.68
	c0-247.61-200.72-448.33-448.33-448.33S81.35,259.27,81.35,506.88c0,20.93,1.44,41.52,4.21,61.68H74.19
	c-2.2-16.38-3.54-33.04-3.96-49.92H22.08v-18.96h48.06C73.95,251.81,273.98,51.54,521.76,47.35V0h18.96v47.41
	c246.34,5.81,444.71,205.44,448.5,452.27h51.18v18.96H989.13z M165.19,652.3c2.02,0.6,4.15,1.66,6.41,3.2
	c6.17,4.27,9.26,10.27,9.26,17.98v18.16c-0.48,3.44-1.84,6.83-4.09,10.15c-1.19,1.66-3.38,3.56-6.59,5.7
	c-0.95,0.6-2.43,1.49-4.45,2.67c1.54,0.83,2.67,1.49,3.38,1.96c2.25,1.54,4.03,3.03,5.34,4.45c4.27,4.87,6.41,9.85,6.41,14.95v36.31
	h-35.24v-45.92h-42.54v45.92H67.83V651.41h90.07C160.74,651.41,163.17,651.7,165.19,652.3z M145.61,682.2h-42.54v15.49h42.54V682.2z
	 M197.86,661.27c2.79-3.38,6.17-5.87,10.15-7.46c3.97-1.6,8.04-2.4,12.19-2.4c1.66,0,2.85,0,3.56,0h50.37
	c4.27,0,7.98,0.68,11.12,2.05c3.14,1.37,6.14,3.71,8.99,7.03c4.63,5.1,6.94,10.92,6.94,17.44v89.89h-35.24v-45.03h-38.98v45.03
	h-35.24v-82.47c0.12-3.91,0.29-6.93,0.53-9.06C193.2,669.65,195.07,664.65,197.86,661.27z M226.96,698.04h38.98v-15.49h-38.98
	V698.04z M472.6,767.82h-35.24V651.41h35.24V767.82z M429.62,192.15l7.47-20.49l7.7,20.49h21.29l-16.68,12.93l7.77,21.55
	l-20.08-13.68l-19.32,13.68l7.32-21.32l-17.81-13.23L429.62,192.15z M312.93,767.82V651.41h84.73c1.42,0,2.43,0,3.03,0
	c6.29,0,12.16,2.37,17.62,7.1c3.2,2.96,5.4,6.19,6.59,9.68c1.18,3.49,1.78,7.84,1.78,13.05v21.67c0,6.04-2.02,11.66-6.05,16.87
	c-3.2,4.03-6.74,6.78-10.59,8.26c-3.86,1.48-8.69,2.22-14.51,2.22h-47.35v37.56H312.93z M390.01,705.87V682.2h-41.83v23.67H390.01z
	 M627.18,171.66l7.7,20.49h21.29l-16.68,12.93l7.77,21.55l-20.08-13.68l-19.32,13.68l7.32-21.32l-17.81-13.23l22.34,0.08
	L627.18,171.66z M596.75,668.67c1.36,3.44,2.05,7.65,2.05,12.64v57.85c0,6.53-2.31,12.46-6.94,17.8
	c-5.82,7.24-13.17,10.86-22.07,10.86h-85.8V651.41h79.21c4.39,0.24,7.83,0.53,10.32,0.89c7.48,1.19,12.87,3.35,16.2,6.5
	C593.04,661.94,595.39,665.23,596.75,668.67z M563.56,682.2h-44.32v54.82h44.32V682.2z M517.81,187.38l12.57-34.44l12.95,34.44h35.8
	l-28.05,21.73l13.07,36.22l-33.76-23.01l-32.5,23.01l12.31-35.84l-29.96-22.24L517.81,187.38z M710.76,697.33v24.56h-65.33v45.92
	h-35.24V651.41h100.57v30.79h-65.33v15.13H710.76z M757.58,651.41v116.41h-35.24V651.41H757.58z M529.68,955.21
	c108.8,0,208.54-38.75,286.18-103.21h17.33c-78.39,68.99-180.47,111.71-292.48,114.35v51.97h-18.96v-51.91
	C408.53,964.5,305.28,921.64,226.16,852h17.34C321.14,916.46,420.88,955.21,529.68,955.21z M804.39,767.82h-35.24V651.41h90.07
	c2.85,0,5.28,0.3,7.3,0.89c2.02,0.6,4.15,1.66,6.41,3.2c6.17,4.27,9.26,10.27,9.26,17.98v18.16c-0.48,3.44-1.84,6.83-4.09,10.15
	c-1.19,1.66-3.38,3.56-6.59,5.7c-0.95,0.6-2.43,1.49-4.45,2.67c1.54,0.83,2.67,1.49,3.38,1.96c2.25,1.54,4.03,3.03,5.34,4.45
	c4.27,4.87,6.41,9.85,6.41,14.95v36.31h-35.24v-45.92h-42.54V767.82z M846.93,697.69V682.2h-42.54v15.49H846.93z M993.61,682.2
	h-65.33v15.13h65.33v24.56h-65.33v15.13h65.33v30.79H893.04V651.41h100.57V682.2z"/>
<path id="_x23_c5d5b8" class="st1" d="M1058.16,838.56H806.69c-74.99,62.29-171.38,99.74-276.53,99.74s-201.54-37.46-276.53-99.74H0
	V579.12h103.52c-4.06-23.79-6.17-48.23-6.17-73.18c0-57.48,11.23-112.33,31.61-162.5h52.43c-23.07,49.36-35.95,104.41-35.95,162.48
	c0,42.35,6.86,83.1,19.52,121.2H48.24V790.8h223.6c68.31,61.89,158.97,99.6,258.44,99.6s190.14-37.71,258.44-99.6h221.44V627.12
	H895.6c12.66-38.1,19.52-78.85,19.52-121.2c0-63.79-15.55-123.94-43.07-176.9H745.46c-27.35,0-49.53,22.19-49.53,49.57v0.29
	c0,27.37,22.18,49.57,49.53,49.57h60.59l0,0h87.97l0,0l0,0l-44.69,57.64l-85.35,110.08h-87.97l85.35-110.08h-15.62
	c-59.16,0-107.12-48-107.12-107.2s47.96-107.2,107.12-107.2l129.77,0l0,0H894c43.64,67.5,68.98,147.93,68.98,234.26
	c0,24.94-2.12,49.39-6.17,73.18h101.36V838.56z M433.98,596.16V271.68h248.64c-21.85,13.57-39.2,33.7-49.33,57.64h-125.3v75.79h98.5
	l-38.29,57.64h-60.21v133.43H433.98z M530.28,121.44c-124.3,0-234.83,58.88-305.19,150.24l91.88,0c59.16,0,107.12,48,107.12,107.2
	s-47.96,107.2-107.12,107.2h-15.62l85.35,110.08h-87.97l-85.35-110.08l-44.69-57.64l0,0h87.97l0,0h60.59
	c27.35,0,49.53-22.19,49.53-49.57v-0.29c0-27.37-22.18-49.57-49.53-49.57H188.51c0,0.01-0.01,0.01-0.01,0.02h-53.38
	C202.8,178.46,354.22,73.58,530.16,73.58c146.38,0,275.78,72.59,354.11,183.7h-60.45C753.23,174.18,647.92,121.44,530.28,121.44z"/>
</svg>
